<svg width="80" height="65" viewBox="0 0 80 65" fill="none" xmlns="http://www.w3.org/2000/svg">
<path d="M80 0.495972C76.88 2.34797 70.62 4.87197 66.94 5.59997C66.832 5.62797 66.744 5.66397 66.64 5.69197C63.388 2.48397 58.932 0.495972 54 0.495972C44.06 0.495972 36 8.55597 36 18.496C36 19.02 35.956 19.984 36 20.496C22.588 20.496 12.38 13.472 5.06 4.49597C4.264 6.49597 3.916 9.65597 3.916 12.624C3.916 18.228 8.296 23.732 15.116 27.144C13.86 27.468 12.476 27.7 11.036 27.7C8.712 27.7 6.252 27.088 4 25.232C4 25.3 4 25.364 4 25.436C4 33.268 12.312 38.6 19.704 40.084C18.204 40.968 15.18 41.056 13.704 41.056C12.664 41.056 8.984 40.58 8 40.396C10.056 46.816 17.472 50.424 24.54 50.552C19.012 54.888 15.176 56.496 3.856 56.496H0C7.152 61.08 16.26 64.5 25.388 64.5C55.108 64.5 72 41.848 72 20.496C72 20.152 71.992 19.432 71.98 18.708C71.98 18.636 72 18.568 72 18.496C72 18.388 71.968 18.284 71.968 18.176C71.956 17.632 71.944 17.124 71.932 16.86C75.092 14.58 77.832 11.736 80 8.49597C77.1 9.78397 73.988 10.648 70.72 11.04C74.056 9.03997 78.796 4.27197 80 0.495972Z" fill="white"/>
</svg>
